<svg data-name="Layer 1" xmlns="http://www.w3.org/2000/svg" viewBox="0 0 64 64">
    <defs></defs>
    <title>Thinking</title>
    <g id="TSizNs.tif">
        <path class="cls-1" d="M55.3,36.65v.9l0,.15c-.05.33-.08.67-.15,1a8.41,8.41,0,0,1-1.81,3.38,9.42,9.42,0,0,1-2.13,1.85.23.23,0,0,0-.11.24c0,.2,0,.4.07.6a9.07,9.07,0,0,1-.2,3.07,5.4,5.4,0,0,1-1.57,2.77,8.37,8.37,0,0,1-3.88,1.84,4.68,4.68,0,0,0-1.58.32.56.56,0,0,0-.2.17c-.22.33-.4.69-.63,1a7.5,7.5,0,0,1-2,2,8.09,8.09,0,0,1-3,1.06l-1.17.22H35.63L35,57.18a5.8,5.8,0,0,1-2.8-1.31l-.24-.2-.13.12a5.83,5.83,0,0,1-2.72,1.35c-.25,0-.51.08-.77.11h-.83l-.17,0c-.59-.08-1.19-.12-1.78-.24a7.53,7.53,0,0,1-2.55-1,7.82,7.82,0,0,1-2.84-3.19.36.36,0,0,0-.34-.22,10.57,10.57,0,0,1-3.49-.85,5.59,5.59,0,0,1-3.18-3.38,9.15,9.15,0,0,1-.28-4.19.23.23,0,0,0-.11-.27,11,11,0,0,1-2.4-2.16,7.22,7.22,0,0,1-1.66-5.53,9.36,9.36,0,0,1,1.39-4c.12-.2.32-.38.34-.59s-.14-.42-.23-.63a20.7,20.7,0,0,1-1.39-6,13.6,13.6,0,0,1,.43-4.58A10.33,10.33,0,0,1,12,15.88a10.87,10.87,0,0,1,4.9-2.78.3.3,0,0,0,.21-.17c.25-.45.48-.92.77-1.34a10.77,10.77,0,0,1,5.4-4,14,14,0,0,1,5.57-.77A5.64,5.64,0,0,1,31,7.32c.36.18.69.4,1.05.61l0,0a5.38,5.38,0,0,1,3-1.12,12.72,12.72,0,0,1,3,.12A12.37,12.37,0,0,1,42.62,8.4a10.09,10.09,0,0,1,4.32,4.54.3.3,0,0,0,.18.15,22.44,22.44,0,0,1,2.17.8,10.26,10.26,0,0,1,5.47,6.78,13.2,13.2,0,0,1,.38,3.6,15.32,15.32,0,0,1-.42,3.63,22.7,22.7,0,0,1-1.13,3.44.59.59,0,0,0,0,.6,9.43,9.43,0,0,1,1.55,3.81C55.23,36.05,55.26,36.35,55.3,36.65ZM40.16,51.87,40,51.75a6.3,6.3,0,0,1-2.42-3A8.41,8.41,0,0,1,37,45.4a2,2,0,0,1,4-.11c0,.42,0,.85.07,1.26a2.79,2.79,0,0,0,1.36,2.07,2.28,2.28,0,0,0,1.6.25,6.39,6.39,0,0,0,2.1-.68,2.58,2.58,0,0,0,1.41-2.38,7.73,7.73,0,0,0-.34-2.08,1.93,1.93,0,0,1,0-1,2,2,0,0,1,1.15-1.33,5.39,5.39,0,0,0,2.18-1.68,4.41,4.41,0,0,0,.81-3.24A5.32,5.32,0,0,0,51,35l-.14.11c-.4.33-.8.68-1.22,1a9.32,9.32,0,0,1-6.92,1.8,2.21,2.21,0,0,1-1.46-.67,1.84,1.84,0,0,1-.35-2A1.82,1.82,0,0,1,42.65,34a6.44,6.44,0,0,1,.86.09,5.23,5.23,0,0,0,2.72-.56,10.28,10.28,0,0,0,3.37-2.74,3.27,3.27,0,0,0,.5-.69,15.28,15.28,0,0,0,1.31-5.56,8.75,8.75,0,0,0-1.09-4.72,6.55,6.55,0,0,0-4.92-3.38A2,2,0,0,1,43.7,15a3.25,3.25,0,0,0-.23-.54,7,7,0,0,0-2.77-2.68,9.92,9.92,0,0,0-5.55-1.15.86.86,0,0,0-.8.59,4.88,4.88,0,0,0-.2.65,11.53,11.53,0,0,0-.21,2.49V51.17a5.62,5.62,0,0,0,0,.58,1.61,1.61,0,0,0,.73,1.32,1.69,1.69,0,0,0,.89.27c.54,0,1.08-.06,1.61-.09a4.65,4.65,0,0,0,2.28-.81A8.66,8.66,0,0,0,40.16,51.87Zm-26.73-23c.35-.16.68-.33,1-.47a10.22,10.22,0,0,1,3.22-.75,13.17,13.17,0,0,1,3.38.19c.63.12,1.25.33,1.88.45a2,2,0,0,1,1.57,2,1.94,1.94,0,0,1-2.13,1.83,8.56,8.56,0,0,1-.83-.23,10.88,10.88,0,0,0-4-.25,5.17,5.17,0,0,0-3.67,1.92,5.65,5.65,0,0,0-1.24,3.63A4.27,4.27,0,0,0,14,40.24a6.17,6.17,0,0,0,1.75,1.15,1.93,1.93,0,0,1,1.07,2.33,6.42,6.42,0,0,0-.34,2.3A2.54,2.54,0,0,0,17,47.46a3.43,3.43,0,0,0,1.68,1.08,8.26,8.26,0,0,0,2.61.39,2,2,0,0,1,1.08.3,2.25,2.25,0,0,1,.92,1.39,3.23,3.23,0,0,0,1.65,2.05,6,6,0,0,0,2.26.64,5.31,5.31,0,0,0,1.49,0A1.51,1.51,0,0,0,30,52a4.21,4.21,0,0,0,.06-.79q0-18.36,0-36.7c0-.68-.05-1.36-.1-2a4.13,4.13,0,0,0-.34-1.34.78.78,0,0,0-.65-.48,9.22,9.22,0,0,0-3.1.18,8.44,8.44,0,0,0-4.69,2.72A3.91,3.91,0,0,0,20.3,15a1.69,1.69,0,0,1-.79,1.06,2,2,0,0,1-.76.35c-.23,0-.46.09-.68.14a6.39,6.39,0,0,0-2.69,1.28,7.82,7.82,0,0,0-2.8,5.66,10.68,10.68,0,0,0,.1,2.46A14.58,14.58,0,0,0,13.43,28.82Z"></path>
        <path class="cls-1" d="M46.77,28.09a8.52,8.52,0,0,1-6.43-2.61,9.19,9.19,0,0,1-2-3.28,14.79,14.79,0,0,1-.53-1.9A1.91,1.91,0,0,1,39.46,18a2,2,0,0,1,2.26,1.69,6.5,6.5,0,0,0,1.84,3.55,3.31,3.31,0,0,0,2.07.94,6.86,6.86,0,0,0,1.81-.09A1.94,1.94,0,1,1,47.79,28C47.42,28,47,28.07,46.77,28.09Z"></path>
        <path class="cls-1" d="M18.37,35.87a2.68,2.68,0,0,1,1,.25A10,10,0,0,1,23,38.44a10.53,10.53,0,0,1,2.29,3.48,12.52,12.52,0,0,1,.86,3.47,1.94,1.94,0,0,1-3.81.68c-.07-.32-.05-.67-.09-1a6,6,0,0,0-2.88-4.7,7.77,7.77,0,0,0-1.55-.71,1.9,1.9,0,0,1-1.38-1.76A1.93,1.93,0,0,1,18.37,35.87Z"></path>
        <path class="cls-1" d="M20.77,24.11a2.57,2.57,0,0,1-1.26-.19,1.94,1.94,0,0,1,.83-3.7,5.66,5.66,0,0,0,1.79-.2,3.08,3.08,0,0,0,2.1-2.34,2,2,0,0,1,2-1.59,2,2,0,0,1,1.82,2.48,7,7,0,0,1-5.29,5.26A8.63,8.63,0,0,1,20.77,24.11Z"></path>
    </g>
</svg>