<svg data-name="Layer 1" xmlns="http://www.w3.org/2000/svg" viewBox="0 0 64 64">
    <defs></defs>
    <title>Connection</title>
    <path class="cls-1" d="M32,25.56a8.87,8.87,0,1,1,8.86-8.86A8.87,8.87,0,0,1,32,25.56ZM32,11.7a5,5,0,1,0,5,5A5,5,0,0,0,32,11.7Z"></path>
    <path class="cls-1" d="M14.28,54.07a8.86,8.86,0,1,1,8.86-8.86A8.86,8.86,0,0,1,14.28,54.07Zm0-13.85a5,5,0,1,0,5,5A5,5,0,0,0,14.28,40.22Z"></path>
    <path class="cls-1" d="M49.72,54.07a8.86,8.86,0,1,1,8.86-8.86A8.87,8.87,0,0,1,49.72,54.07Zm0-13.85a5,5,0,1,0,5,5A5,5,0,0,0,49.72,40.22Z"></path>
    <rect class="cls-1" x="39.83" y="20.42" width="4" height="19.68" transform="translate(-9.47 24.46) rotate(-29.43)"></rect>
    <rect class="cls-1" x="13.3" y="28.26" width="19.68" height="4" transform="translate(-14.59 35.55) rotate(-60.57)"></rect>
    <rect class="cls-1" x="21.5" y="43.21" width="21" height="4"></rect>
</svg>