<svg data-name="Layer 1" xmlns="http://www.w3.org/2000/svg" viewBox="0 0 64 64">
    <defs></defs>
    <title>Work</title>
    <g id="iQFwDU.tif">
        <path class="cls-1" d="M54.09,53.15H44.18s-.07-.06-.12-.07a2.53,2.53,0,0,1-2-2.68V45.11H11.64A3.47,3.47,0,0,1,7.91,42a.9.9,0,0,0-.08-.21V39.74a1.3,1.3,0,0,1,1.37-.68c.87,0,1.75,0,2.67,0V15a6.27,6.27,0,0,1,0-.75,3.58,3.58,0,0,1,2.18-3.12c.21-.09.43-.16.64-.24H48.24a2.67,2.67,0,0,0,.26.09,4.31,4.31,0,0,1,3.63,4.52V27h.53a10.63,10.63,0,0,1,1.13,0,2.63,2.63,0,0,1,2.38,2.08v22A3,3,0,0,1,54.09,53.15ZM17.94,35H42.09v-.53c0-1.62,0-3.24,0-4.86A2.52,2.52,0,0,1,44.7,27h1.35V16.92H17.94ZM50.1,27c0-.11,0-.17,0-.23,0-3.93,0-7.87,0-11.8a1.9,1.9,0,0,0-.46-1.09,2.87,2.87,0,0,0-2.35-1H15.44A1.43,1.43,0,0,0,14,14.07a3.71,3.71,0,0,0-.1.94q0,11.75,0,23.5c0,.17,0,.33,0,.5H42.05V37H17.25c-1.06,0-1.38-.31-1.38-1.37V16.25c0-1,.32-1.36,1.35-1.36H47.15a.93.93,0,0,1,.93.78,3.56,3.56,0,0,1,.05.65V27Zm4,6.08h-10v14h10ZM42.06,41.1H9.85c.12,1.58.53,2,2,2H42.06Zm12.11,8H44.12a.53.53,0,0,0,0,.13v1c0,.71.16.88.89.88h8.44c.42,0,.72-.17.74-.62S54.17,49.63,54.17,49.15Zm0-18.19a1.19,1.19,0,0,0,0-.2c0-.31,0-.63,0-.94,0-.66-.18-.84-.83-.84H44.76c-.37,0-.63.15-.66.52s0,1,0,1.46Z"></path>
        <path class="cls-1" d="M54.17,53.63H44l-.12-.08a3,3,0,0,1-2.31-3.15V45.59h-30a3.94,3.94,0,0,1-4.18-3.47l-.1-.3v-2.2l.06-.11a1.79,1.79,0,0,1,1.81-.93c.6,0,1.2,0,1.82,0h.35V14.84a4.11,4.11,0,0,1,0-.7,4,4,0,0,1,2.46-3.49l.46-.17.37-.11H48.33l.18.07.09,0a4.8,4.8,0,0,1,4,5v11H53a7.85,7.85,0,0,1,.84,0,3.12,3.12,0,0,1,2.79,2.42l0,.14,0,22.15a3.48,3.48,0,0,1-2.39,2.39Zm-9.85-1H54A2.5,2.5,0,0,0,55.69,51V29.15a2.15,2.15,0,0,0-1.94-1.69c-.24,0-.48,0-.73,0H51.65v-12a3.82,3.82,0,0,0-3.26-4.05l-.24-.08H14.81l-.13,0-.42.16a3.1,3.1,0,0,0-1.89,2.74,5.43,5.43,0,0,0,0,.57v24.7h-1.3c-.64,0-1.26,0-1.88,0a.84.84,0,0,0-.86.35v1.83a1,1,0,0,1,.07.23,3,3,0,0,0,3.26,2.69H42.56V50.4a2.05,2.05,0,0,0,1.64,2.22Zm7.55-1H45c-1,0-1.37-.38-1.37-1.36l0-1.18.1-.36.38-.06H54.65v.91c0,.33,0,.66,0,1a1.11,1.11,0,0,1-1.22,1.07Zm-.52-1h2.07c.26,0,.26-.06.26-.16a8.58,8.58,0,0,0,0-.88H44.56v.64a1.17,1.17,0,0,0,0,.38s.07,0,.38,0Zm3.28-3.11h-11v-15h11Zm-10-1h9.07V33.52H44.6Zm-2.06-3.06H11.89c-1.77,0-2.38-.58-2.52-2.4l0-.51H42.54Zm-32.16-2c.13.87.42,1,1.51,1H41.58v-1Zm32.15-2.09H13.44l0-.61c0-.12,0-.24,0-.37q0-11.74,0-23.5a4.9,4.9,0,0,1,.11-1,1.91,1.91,0,0,1,1.9-1.58H47.3A3.35,3.35,0,0,1,50,13.53a2.46,2.46,0,0,1,.57,1.39c0,3.15,0,6.29,0,9.43v2.38a1.37,1.37,0,0,1,0,.19l-.05.43-.44.09H47.65V16.33a2.5,2.5,0,0,0,0-.55.46.46,0,0,0-.48-.4H17.22c-.77,0-.87.1-.87.88v19.4c0,.79.1.89.9.89H42.53Zm-28.18-1H41.58v-1H17.25c-1.32,0-1.86-.54-1.86-1.85V16.25c0-1.3.53-1.83,1.83-1.83h30a1.4,1.4,0,0,1,1.37,1.16,3.33,3.33,0,0,1,.07.75V26.48h1V24.35c0-3.14,0-6.28,0-9.42a1.4,1.4,0,0,0-.35-.79,2.39,2.39,0,0,0-2-.82H15.47a1,1,0,0,0-1,.85,3.58,3.58,0,0,0-.09.83V38.53Zm28.21-3.06H17.46v-19H46.53v11H44.7a2.05,2.05,0,0,0-2.13,2.14v5.87Zm-24.15-.95h23.2V29.6a3,3,0,0,1,3.09-3.1h.88V17.4H18.41Zm35.73-3.08H43.61v-.92c0-.36,0-.71,0-1.05a1,1,0,0,1,1.13-1h8.59c.91,0,1.3.39,1.31,1.32v.95c0,.05,0,.1,0,.19l-.07.4Zm-9.58-1h9.13q0-.33,0-.66c0-.26,0-.33,0-.34s-.07,0-.31,0H44.75a.68.68,0,0,0-.17,0C44.55,29.85,44.56,30.16,44.56,30.48Z"></path>
    </g>
</svg>